[Header]
FileType HTR
DataType HTRS
FileVersion 1
NumSegments 48
NumFrames 3
DataFrameRate 30
EulerRotationOrder ZYX
CalibrationUnits mm
RotationUnits Degrees
GlobalAxisofGravity Y
BoneLengthAxis Y
ScaleFactor 1.0
[SegmentNames&Hierarchy]
Wolf	GLOBAL
Becken	Wolf
Bauch	Becken
Bauch_001	Bauch
Brust	Bauch_001
Hals	Brust
Kopf_002	Hals
Kopf	Kopf_002
Unterkiefer	Kopf
Hals_fett	Unterkiefer
Maulunten	Unterkiefer
Mauloben	Kopf
MundW_L	Kopf
MundW_R	Kopf
Augen_con	Kopf
IK_Aug_R	Augen_con
IK_Aug_L	Augen_con
Aug_R	Kopf
aug_L	Kopf
Ohr_L	Kopf
Ohr_R	Kopf
Braun_O_L	Kopf
Braun_O_R	Kopf
aug_lied_O_L	Kopf
aug_lied_O_R	Kopf
aug_lied_U_L	Kopf
aug_lied_U_R	Kopf
Bauch_003	Brust
Schalterplatte_L	Bauch_003
Oberarm_L	Schalterplatte_L
Unterarm_L	Oberarm_L
Vorderpfote_L	Unterarm_L
Schalterplatte_R	Bauch_003
Oberarm_R	Schalterplatte_R
Unterarm_R	Oberarm_R
Vorderpfote_R	Unterarm_R
Schwanz	Becken
Schwanz_001	Schwanz
Schwanz_002	Schwanz_001
Schwanz_003	Schwanz_002
Oberschenkel_L	Becken
Unterschenkel_L	Oberschenkel_L
Pfote1_L	Unterschenkel_L
Pfote2_L	Pfote1_L
Oberschenkel_R	Becken
Unterschenkel_R	Oberschenkel_R
Pfote1_R	Unterschenkel_R
Pfote2_R	Pfote1_R
[BasePosition]
Wolf	0	0	0	0	0	0	1
Becken	0	0	0	0	0	0	1
Bauch	0	0	0	0	0	0	1
Bauch_001	0	0	0	0	0	0	1
Brust	0	0	0	0	0	0	1
Hals	0	0	0	0	0	0	1
Kopf_002	0	0	0	0	0	0	1
Kopf	0	0	0	0	0	0	1
Unterkiefer	0	0	0	0	0	0	1
Hals_fett	0	0	0	0	0	0	1
Maulunten	0	0	0	0	0	0	1
Mauloben	0	0	0	0	0	0	1
MundW_L	0	0	0	0	0	0	1
MundW_R	0	0	0	0	0	0	1
Augen_con	0	0	0	0	0	0	1
IK_Aug_R	0	0	0	0	0	0	1
IK_Aug_L	0	0	0	0	0	0	1
Aug_R	0	0	0	0	0	0	1
aug_L	0	0	0	0	0	0	1
Ohr_L	0	0	0	0	0	0	1
Ohr_R	0	0	0	0	0	0	1
Braun_O_L	0	0	0	0	0	0	1
Braun_O_R	0	0	0	0	0	0	1
aug_lied_O_L	0	0	0	0	0	0	1
aug_lied_O_R	0	0	0	0	0	0	1
aug_lied_U_L	0	0	0	0	0	0	1
aug_lied_U_R	0	0	0	0	0	0	1
Bauch_003	0	0	0	0	0	0	1
Schalterplatte_L	0	0	0	0	0	0	1
Oberarm_L	0	0	0	0	0	0	1
Unterarm_L	0	0	0	0	0	0	1
Vorderpfote_L	0	0	0	0	0	0	1
Schalterplatte_R	0	0	0	0	0	0	1
Oberarm_R	0	0	0	0	0	0	1
Unterarm_R	0	0	0	0	0	0	1
Vorderpfote_R	0	0	0	0	0	0	1
Schwanz	0	0	0	0	0	0	1
Schwanz_001	0	0	0	0	0	0	1
Schwanz_002	0	0	0	0	0	0	1
Schwanz_003	0	0	0	0	0	0	1
Oberschenkel_L	0	0	0	0	0	0	1
Unterschenkel_L	0	0	0	0	0	0	1
Pfote1_L	0	0	0	0	0	0	1
Pfote2_L	0	0	0	0	0	0	1
Oberschenkel_R	0	0	0	0	0	0	1
Unterschenkel_R	0	0	0	0	0	0	1
Pfote1_R	0	0	0	0	0	0	1
Pfote2_R	0	0	0	0	0	0	1
[Wolf]
4	0	0	0	-90	-0	0	1.0
5	0	0	0	-90	-0	0	1.0
6	0	0	0	-90	-0	0	1.0
[Becken]
4	0	-0.34547019	1.436347961	-1.91564709e-06	154.64888	90	1.0
5	0	-0.2626202106	1.404101968	-1.91564709e-06	159.929245	90	1.0
6	0	-0.1959402561	1.377310038	-1.91564709e-06	164.6192322	90	1.0
[Bauch]
4	1.062729478	7.68020243e-08	-0.4006038308	8.746882827e-07	16.66150856	4.853698101e-07	1.0
5	1.092534184	7.68020243e-08	-0.4186573923	8.746882827e-07	8.773740768	4.853698101e-07	1.0
6	1.124206185	7.68020243e-08	-0.4308893979	8.746882827e-07	2.781816244	4.853698101e-07	1.0
[Bauch_001]
4	0.5607889891	4.020625255e-08	0.1739656925	1.051260369e-06	7.464688301	4.625552208e-08	1.0
5	0.5761619806	4.020625255e-08	0.1356735677	1.051260369e-06	5.122982025	4.625552208e-08	1.0
6	0.5898756385	4.020625255e-08	0.101523608	1.051260369e-06	3.566607714	4.625552208e-08	1.0
[Brust]
4	1.097236514	8.38275227e-08	0.4534002542	-2.585561106e-06	29.55679321	-6.053789093e-06	1.0
5	1.091415644	8.38275227e-08	0.3602847755	-2.585561106e-06	26.11634254	-6.053789093e-06	1.0
6	1.085594773	8.38275227e-08	0.2671692967	-2.585561106e-06	22.63377762	-6.053789093e-06	1.0
[Hals]
4	1.342220068	9.550224433e-08	0.8061010242	-1.920878731e-06	14.28101158	-4.161266588e-06	1.0
5	1.381055832	9.550224433e-08	0.8326557279	-1.920878731e-06	17.1995945	-4.161266588e-06	1.0
6	1.419891596	9.550224433e-08	0.859210372	-1.920878731e-06	20.15291786	-4.161266588e-06	1.0
[Kopf_002]
4	1.752594829	3.013231981e-05	0.2651812136	0.006653484888	-165.1497192	0.002557621803	1.0
5	1.752594829	3.013231981e-05	0.2651812136	0.006653484888	-165.1497192	0.002557621803	1.0
6	1.752594829	3.013231981e-05	0.2651812136	0.006653484888	-165.1497192	0.002557621803	1.0
[Kopf]
4	1.038931131	7.839815908e-08	-0.03524453938	0.05972700566	115.0882568	-0.03396172822	1.0
5	1.039574742	7.839815908e-08	-0.02723281085	0.06463611871	119.0046768	-0.02956867404	1.0
6	1.040218353	7.839815908e-08	-0.01922108047	0.06849702448	122.9704285	-0.02623877488	1.0
[Unterkiefer]
4	0.6370446682	0.004552738741	0.4060619473	5.41272068	-68.38880157	-3.093541861	1.0
5	0.6370446682	0.004552738741	0.4060619473	5.41272068	-68.38880157	-3.093541861	1.0
6	0.6370446682	0.004552738741	0.4060619473	5.41272068	-68.38880157	-3.093541861	1.0
[Hals_fett]
4	0.2998236716	0.007747383788	0.1206455454	-5.071650982	-59.35961151	5.585565567	1.0
5	0.2998236716	0.007747383788	0.1206455454	-5.071650982	-59.35961151	5.585565567	1.0
6	0.2998236716	0.007747383788	0.1206455454	-5.071650982	-59.35961151	5.585565567	1.0
[Maulunten]
4	0.08317924291	-0.007747320924	-0.1206462979	-3.322208881	38.97270966	-0.8718757033	1.0
5	0.08317924291	-0.007747320924	-0.1206462979	-3.322208881	38.97270966	-0.8718757033	1.0
6	0.08317924291	-0.007747320924	-0.1206462979	-3.322208881	38.97270966	-0.8718757033	1.0
[Mauloben]
4	0.9101490974	0.0004056780017	0.400369823	-0.103267692	-28.77768707	0.0354314521	1.0
5	0.9101490974	0.0004056780017	0.400369823	-0.103267692	-28.77768707	0.0354314521	1.0
6	0.9101490974	0.0004056780017	0.400369823	-0.103267692	-28.77768707	0.0354314521	1.0
[MundW_L]
4	0.6730612516	-0.3618556559	0.3751283288	-179.8370972	-17.94884682	24.71397018	1.0
5	0.6730612516	-0.3618556559	0.3751283288	-179.8370972	-17.94884682	24.71397018	1.0
6	0.6730612516	-0.3618556559	0.3751283288	-179.8370972	-17.94884682	24.71397018	1.0
[MundW_R]
4	0.6732413769	0.362703532	0.3739836514	179.665329	-18.0242691	-24.69084167	1.0
5	0.6732413769	0.362703532	0.3739836514	179.665329	-18.0242691	-24.69084167	1.0
6	0.6732413769	0.362703532	0.3739836514	179.665329	-18.0242691	-24.69084167	1.0
[Augen_con]
4	1.807373762	-0.0001604075951	0.1835815907	0.09822228551	157.1545258	0.02385941148	1.0
5	1.807373762	-0.0001604075951	0.1835815907	0.09822228551	157.1545258	0.02385941148	1.0
6	1.807373762	-0.0001604075951	0.1835815907	0.09822228551	157.1545258	0.02385941148	1.0
[IK_Aug_R]
4	0.3461297154	0.2943200171	3.136494797e-07	-0.4194768965	-4.963055134	165.6946411	1.0
5	0.3461297154	0.2943200171	3.136494797e-07	-0.4194768965	-4.963055134	165.6946411	1.0
6	0.3461297154	0.2943200171	3.136494797e-07	-0.4194768965	-4.963055134	165.6946411	1.0
[IK_Aug_L]
4	0.3461298645	-0.2943200171	3.034585916e-07	0.4194775522	-4.963055611	-165.6946411	1.0
5	0.3461298645	-0.2943200171	3.034585916e-07	0.4194775522	-4.963055611	-165.6946411	1.0
6	0.3461298645	-0.2943200171	3.034585916e-07	0.4194775522	-4.963055611	-165.6946411	1.0
[Aug_R]
4	1.035154939	0.220780611	-0.09605786204	176.004776	-17.29164886	12.85548782	1.0
5	1.035154939	0.220780611	-0.09605786204	176.004776	-17.29164886	12.85548782	1.0
6	1.035154939	0.220780611	-0.09605786204	176.004776	-17.29164886	12.85548782	1.0
[aug_L]
4	1.035047412	-0.2215989083	-0.09536846727	-176.1891174	-17.33176422	-12.83101749	1.0
5	1.035047412	-0.2215989083	-0.09536846727	-176.1891174	-17.33176422	-12.83101749	1.0
6	1.035047412	-0.2215989083	-0.09536846727	-176.1891174	-17.33176422	-12.83101749	1.0
[Ohr_L]
4	0.6407766938	-0.365999192	-0.6893325448	-24.34924316	53.07766342	-15.02013397	1.0
5	0.6407766938	-0.365999192	-0.6893325448	-24.34924316	53.07766342	-15.02013397	1.0
6	0.6407766938	-0.365999192	-0.6893325448	-24.34924316	53.07766342	-15.02013397	1.0
[Ohr_R]
4	0.6409586668	0.3634999394	-0.6904851198	24.05786133	53.12416458	14.75857353	1.0
5	0.6409586668	0.3634999394	-0.6904851198	24.05786133	53.12416458	14.75857353	1.0
6	0.6409586668	0.3634999394	-0.6904851198	24.05786133	53.12416458	14.75857353	1.0
[Braun_O_L]
4	0.9801893234	-0.3706049621	-0.3292511106	-143.317215	-34.69634628	52.39493942	1.0
5	0.9801893234	-0.3706049621	-0.3292511106	-143.317215	-34.69634628	52.39493942	1.0
6	0.9801893234	-0.3706049621	-0.3292511106	-143.317215	-34.69634628	52.39493942	1.0
[Braun_O_R]
4	0.9803637862	0.369074285	-0.3304226696	143.182663	-34.83971786	-52.3467598	1.0
5	0.9803637862	0.369074285	-0.3304226696	143.182663	-34.83971786	-52.3467598	1.0
6	0.9803637862	0.369074285	-0.3304226696	143.182663	-34.83971786	-52.3467598	1.0
[aug_lied_O_L]
4	1.038882613	-0.3271434009	-0.1608110666	-175.8613434	-20.15596771	60.31667709	1.0
5	1.038882613	-0.3271434009	-0.1608110666	-175.8613434	-20.15596771	60.31667709	1.0
6	1.038882613	-0.3271434009	-0.1608110666	-175.8613434	-20.15596771	60.31667709	1.0
[aug_lied_O_R]
4	1.039044976	0.326115787	-0.1618431509	175.7657928	-20.31323814	-60.31218338	1.0
5	1.039044976	0.326115787	-0.1618431509	175.7657928	-20.31323814	-60.31218338	1.0
6	1.039044976	0.326115787	-0.1618431509	175.7657928	-20.31323814	-60.31218338	1.0
[aug_lied_U_L]
4	1.021916747	-0.3312866092	-0.1338487417	-159.8099365	-28.7482872	60.17462158	1.0
5	1.021916747	-0.3312866092	-0.1338487417	-159.8099365	-28.7482872	60.17462158	1.0
6	1.021916747	-0.3312866092	-0.1338487417	-159.8099365	-28.7482872	60.17462158	1.0
[aug_lied_U_R]
4	1.022078514	0.3303526044	-0.1348845363	159.7071381	-28.90531921	-60.15359879	1.0
5	1.022078514	0.3303526044	-0.1348845363	159.7071381	-28.90531921	-60.15359879	1.0
6	1.022078514	0.3303526044	-0.1348845363	159.7071381	-28.90531921	-60.15359879	1.0
[Bauch_003]
4	1.276869178	9.640092458e-08	-0.6079563498	-3.938861937e-06	-137.6799469	1.017604518e-05	1.0
5	1.276869178	9.640092458e-08	-0.6079563498	-3.938861937e-06	-137.6799469	1.017604518e-05	1.0
6	1.276869178	9.640092458e-08	-0.6079563498	-3.938861937e-06	-137.6799469	1.017604518e-05	1.0
[Schalterplatte_L]
4	0.8925708532	-0.3820799291	2.05982893e-08	10.17702961	51.9730835	-15.95640087	1.0
5	0.8925708532	-0.3820799291	2.05982893e-08	4.27928257	59.26179504	-23.47424126	1.0
6	0.8925708532	-0.3820799291	2.05982893e-08	-9.113965034	68.96735382	-41.0454216	1.0
[Oberarm_L]
4	1.418637037	6.984918599e-08	2.142041922e-07	-78.20671844	-61.94490814	85.42765045	1.0
5	1.418637037	6.984918599e-08	2.142041922e-07	-108.1457138	-63.13014603	123.8204651	1.0
6	1.418637037	6.984918599e-08	2.142041922e-07	-127.7600937	-54.89240646	154.0227814	1.0
[Unterarm_L]
4	2.028227091	1.769512892e-07	2.468004823e-07	1.430178642	35.33228683	1.341544509	1.0
5	2.028227091	1.769512892e-07	2.468004823e-07	5.009309769	46.42667389	5.797476768	1.0
6	2.028227091	1.769512892e-07	2.468004823e-07	11.75608444	54.08395386	14.76979542	1.0
[Vorderpfote_L]
4	1.705947876	2.095475793e-07	-1.816079021e-07	3.533238888	82.01869965	2.606089592	1.0
5	1.705947876	2.095475793e-07	-1.816079021e-07	-0.5348461866	52.21076584	-3.821936607	1.0
6	1.705947876	2.095475793e-07	-1.816079021e-07	0.8346508145	24.13647842	-1.097085476	1.0
[Schalterplatte_R]
4	0.892570734	0.3820800781	8.883210967e-08	1.442541003	67.81310272	32.19134521	1.0
5	0.892570734	0.3820800781	8.883210967e-08	1.126387477	68.08918762	32.59982681	1.0
6	0.892570734	0.3820800781	8.883210967e-08	-1.378380656	65.7598877	29.7584343	1.0
[Oberarm_R]
4	1.418637633	1.862644972e-08	1.862644972e-08	64.62751007	-52.83335876	-72.99125671	1.0
5	1.418637633	1.862644972e-08	1.862644972e-08	67.66733551	-55.67310715	-79.69785309	1.0
6	1.418637633	1.862644972e-08	1.862644972e-08	60.68722916	-57.20355988	-75.36403656	1.0
[Unterarm_R]
4	2.028232336	9.313225746e-08	-3.247987479e-07	1.3164258	42.96790695	1.901508331	1.0
5	2.028232336	9.313225746e-08	-3.247987479e-07	1.047101736	45.96645355	1.584485292	1.0
6	2.028232336	9.313225746e-08	-3.247987479e-07	0.6928194761	42.74500656	1.117339253	1.0
[Vorderpfote_R]
4	1.705937147	1.11758709e-07	-3.015156835e-07	14.73532486	69.92066956	5.75229454	1.0
5	1.705937147	1.11758709e-07	-3.015156835e-07	15.40282059	74.11781311	6.500982761	1.0
6	1.705937147	1.11758709e-07	-3.015156835e-07	14.54745388	72.48536682	5.65093565	1.0
[Schwanz]
4	-0.09202289581	-7.265629876e-09	0.07187905908	-0.06966222078	-158.5209961	-1.591974139	1.0
5	-0.0869179368	-7.265629876e-09	0.1059763879	0.6680319905	-140.5743256	-2.029508829	1.0
6	-0.09177863598	-7.265629876e-09	0.1461122334	2.120643854	-117.4402695	-3.135573626	1.0
[Schwanz_001]
4	0.9104328156	6.635672634e-08	-8.707502275e-08	-0.1153340191	-4.7197752	-0.7028861046	1.0
5	0.9104328156	6.635672634e-08	-8.707502275e-08	-0.4169117212	-30.12515068	-0.9373511672	1.0
6	0.9104328156	6.635672634e-08	-8.707502275e-08	-0.6072872877	-48.79496002	-1.040270686	1.0
[Schwanz_002]
4	0.7855660915	6.082701276e-08	-2.382875941e-08	0.7572526932	4.390485764	-0.7028871179	1.0
5	0.7855660915	6.082701276e-08	-2.382875941e-08	0.7693966627	-15.35286427	-0.9692143202	1.0
6	0.7855660915	6.082701276e-08	-2.382875941e-08	0.8466205597	-29.9271698	-1.186921358	1.0
[Schwanz_003]
4	0.8350354433	5.987204332e-08	5.614651855e-08	8.880763289e-07	-11.60312271	-8.974389942e-08	1.0
5	0.8350354433	5.987204332e-08	5.614651855e-08	8.880763289e-07	-11.60312271	-8.974389942e-08	1.0
6	0.8350354433	5.987204332e-08	5.614651855e-08	8.880763289e-07	-11.60312271	-8.974389942e-08	1.0
[Oberschenkel_L]
4	-0.1331147552	-0.5834400654	0.4584708512	15.66450977	-62.30236053	-10.28234196	1.0
5	-0.01507046446	-0.5834400654	0.3745442033	15.1548233	-60.93515778	-9.706110954	1.0
6	0.1042792276	-0.5834400654	0.2906175256	15.47203159	-61.84664536	-10.06780434	1.0
[Unterschenkel_L]
4	1.686439037	1.338776201e-07	-7.450580597e-08	-150.5585632	-51.99655533	172.9549408	1.0
5	1.686439037	1.338776201e-07	-7.450580597e-08	-149.0378571	-53.89476395	170.5020142	1.0
6	1.686439037	1.338776201e-07	-7.450580597e-08	-143.6603851	-62.63964462	161.9798279	1.0
[Pfote1_L]
4	1.190900326	9.313225746e-08	1.065200195e-07	-23.46935844	81.63748169	-33.54476929	1.0
5	1.190900326	9.313225746e-08	1.065200195e-07	-13.58609676	78.75048828	-23.54999352	1.0
6	1.190900326	9.313225746e-08	1.065200195e-07	-12.45974827	78.12355042	-22.40068245	1.0
[Pfote2_L]
4	0.9876260161	9.313225746e-08	-5.820770088e-09	-8.787682533	-31.38393211	-6.241981506	1.0
5	0.9876260161	9.313225746e-08	-5.820770088e-09	-8.837882042	-31.54439545	-5.434743881	1.0
6	0.9876260161	9.313225746e-08	-5.820770088e-09	-6.706204891	-32.88805771	-4.257020473	1.0
[Oberschenkel_R]
4	-0.03775048628	0.5836999416	0.5263859034	-9.960752487	-19.67253876	2.198058605	1.0
5	0.08029250801	0.5836999416	0.4424600005	-10.03966618	-21.45067024	2.391393185	1.0
6	0.1996329576	0.5836999416	0.3585340977	-10.35167217	-28.45700645	3.153903961	1.0
[Unterschenkel_R]
4	1.68644917	1.234002411e-07	9.313230187e-09	-42.11597061	-124.2472382	22.31285286	1.0
5	1.68644917	1.234002411e-07	9.313230187e-09	-68.58293152	-111.159729	55.88001633	1.0
6	1.68644917	1.234002411e-07	9.313230187e-09	-115.0178604	-107.8453598	104.8137283	1.0
[Pfote1_R]
4	1.190900326	4.656610209e-09	5.355104804e-08	-2.451602221	32.3876152	5.840600014	1.0
5	1.190900326	4.656610209e-09	5.355104804e-08	-1.661838889	10.97884083	7.454666138	1.0
6	1.190900326	4.656610209e-09	5.355104804e-08	-1.612047195	5.283566952	7.777998447	1.0
[Pfote2_R]
4	0.9876259565	8.381903172e-08	1.071020961e-07	15.52881432	21.84566307	13.27040291	1.0
5	0.9876259565	8.381903172e-08	1.071020961e-07	12.46461773	38.04802704	10.87727737	1.0
6	0.9876259565	8.381903172e-08	1.071020961e-07	10.27609158	45.13293839	10.199687	1.0
[EndOfFile]
